# Blender v2.75 (sub 0) OBJ File: 'phone.blend'
# www.blender.org
o phone.obj_Plane.001
v -0.133110 0.000037 0.090000
v -0.133110 0.000037 -0.090000
v -0.066534 0.074654 0.063000
v -0.066534 0.074654 -0.063000
v -0.133068 0.149308 0.100000
v -0.000000 0.000000 0.100000
v -0.133068 0.149308 -0.100000
v -0.000000 0.000000 -0.100000
v -0.131072 0.147069 0.091500
v -0.001996 0.002240 0.088000
v -0.131072 0.147069 0.028500
v -0.001996 0.002240 0.032000
v -0.020718 0.053306 0.095000
v -0.020718 0.053306 0.025000
vt 0.000151 0.666717
vt 0.599789 0.666717
vt 0.509843 0.999849
vt 0.000151 0.000151
vt 0.666415 0.000151
vt 0.666416 0.666415
vt 0.666620 0.000151
vt 0.900006 0.000151
vt 0.899910 0.181341
vt 0.666717 0.181341
vt 0.899721 0.666225
vt 0.090096 0.999849
vt 0.000151 0.666415
vt 0.666658 0.666089
vn 0.746200 -0.665800 -0.000000
vn 0.746500 0.665300 0.000000
vn 0.938900 0.344200 -0.000000
vn 0.647500 0.762100 0.000000
s off
f 1/1/1 2/2/1 4/3/1
f 6/4/2 8/5/2 7/6/2
f 10/7/3 12/8/3 14/9/3
f 13/10/4 14/9/4 11/11/4
f 3/12/1 1/1/1 4/3/1
f 5/13/2 6/4/2 7/6/2
f 13/10/3 10/7/3 14/9/3
f 9/14/4 13/10/4 11/11/4
