# Blender v2.75 (sub 0) OBJ File: 'tree.blend'
# www.blender.org
o Cylinder
v 0.000000 -0.000367 -0.506395
v -0.000000 1.809804 -0.506395
v 0.358075 -0.000367 -0.358075
v 0.358075 1.809804 -0.358075
v 0.506395 -0.000367 0.000000
v 0.506394 1.809804 0.000000
v 0.358075 -0.000367 0.358075
v 0.358075 1.809804 0.358075
v 0.000000 -0.000367 0.506395
v -0.000000 1.809804 0.506395
v -0.358075 -0.000367 0.358075
v -0.358075 1.809804 0.358075
v -0.506395 -0.000367 -0.000000
v -0.506395 1.809804 -0.000000
v -0.358075 -0.000367 -0.358075
v -0.358075 1.809804 -0.358075
v -0.000000 0.904719 -0.393170
v 0.278013 0.904719 -0.278013
v 0.393170 0.904719 0.000000
v 0.278013 0.904719 0.278013
v -0.000000 0.904719 0.393170
v -0.278013 0.904719 0.278013
v -0.393170 0.904719 -0.000000
v -0.278013 0.904719 -0.278013
v -0.000001 8.226650 -0.000000
v -0.000000 2.448926 -1.231898
v -0.000000 3.548754 -1.009610
v -0.000000 4.648582 -0.787322
v -0.000001 5.748409 -0.565034
v -0.000001 6.848237 -0.342747
v 0.249993 7.126823 -0.249994
v 0.412127 6.026996 -0.412127
v 0.574260 4.927168 -0.574260
v 0.736393 3.827341 -0.736394
v 0.898527 2.727513 -0.898527
v 0.342746 6.848237 0.000000
v 0.565034 5.748409 0.000000
v 0.787322 4.648582 0.000000
v 1.009610 3.548754 0.000000
v 1.231898 2.448926 0.000000
v 0.249993 7.126823 0.249994
v 0.412127 6.026996 0.412127
v 0.574260 4.927168 0.574260
v 0.736393 3.827341 0.736394
v 0.898527 2.727513 0.898527
v -0.000001 6.848237 0.342747
v -0.000001 5.748409 0.565034
v -0.000001 4.648582 0.787322
v -0.000000 3.548754 1.009610
v -0.000000 2.448926 1.231898
v -0.249995 7.126823 0.249994
v -0.412128 6.026996 0.412127
v -0.574261 4.927168 0.574260
v -0.736394 3.827341 0.736394
v -0.898527 2.727513 0.898527
v -0.342747 6.848237 -0.000000
v -0.565035 5.748409 -0.000000
v -0.787323 4.648582 -0.000000
v -1.009610 3.548754 -0.000000
v -1.231898 2.448926 -0.000000
v -0.249995 7.126823 -0.249994
v -0.412128 6.026996 -0.412127
v -0.574261 4.927168 -0.574260
v -0.736394 3.827341 -0.736394
v -0.898527 2.727513 -0.898527
v -0.000001 6.671299 -0.609168
v 0.444317 6.949886 -0.444317
v 0.609167 6.671299 0.000000
v 0.444317 6.949886 0.444317
v -0.000001 6.671299 0.609168
v -0.444318 6.949886 0.444317
v -0.609169 6.671299 -0.000000
v -0.444318 6.949886 -0.444317
v -0.000001 5.571472 -0.944322
v 0.688773 5.850058 -0.688774
v 0.944321 5.571471 0.000000
v 0.688773 5.850058 0.688774
v -0.000001 5.571471 0.944322
v -0.688774 5.850058 0.688774
v -0.944323 5.571471 -0.000000
v -0.688774 5.850058 -0.688774
v -0.000000 4.471644 -1.246936
v 0.909495 4.750231 -0.909496
v 1.320167 4.471644 0.000000
v 0.962909 4.750231 0.909496
v -0.000001 4.471644 1.246936
v -0.962910 4.750231 0.909495
v -1.320168 4.471644 0.000000
v -0.909496 4.750231 -0.909495
v -0.000000 3.371817 -1.613814
v 1.177091 3.650403 -1.177091
v 1.671498 3.371817 0.000000
v 1.219165 3.650403 1.177091
v -0.000000 3.371817 1.613814
v -1.219165 3.650403 1.177091
v -1.671499 3.371816 0.000000
v -1.177091 3.650403 -1.177091
v -0.000000 2.271989 -2.235936
v 1.455835 2.550576 -1.630857
v 1.995977 2.271989 0.000000
v 1.455835 2.550576 1.630857
v -0.000000 2.271989 2.235936
v -1.455835 2.550575 1.630856
v -1.995978 2.271989 -0.000000
v -1.455835 2.550575 -1.630857
v 1.766608 1.450748 -1.766608
v 2.422054 1.172162 0.000000
v 1.766608 1.450748 1.766608
v -0.000000 1.172161 2.422054
v -1.766608 1.450748 1.766608
v -2.422054 1.172161 -0.000000
v -1.766608 1.450748 -1.766608
v -0.000000 1.172161 -2.422054
vt 0.104173 0.080306
vt 0.104171 0.919694
vn 0.380200 -0.114800 -0.917800
vn 0.917800 -0.114800 -0.380200
vn 0.917800 -0.114800 0.380200
vn 0.380200 -0.114800 0.917800
vn -0.380200 -0.114800 0.917800
vn -0.917800 -0.114800 0.380200
vn -0.000000 1.000000 0.000000
vn -0.380200 -0.114800 -0.917800
vn -0.917800 -0.114800 -0.380200
vn 0.000000 -1.000000 0.000000
vn -0.917800 0.114800 -0.380200
vn -0.380200 0.114800 -0.917800
vn -0.917800 0.114800 0.380200
vn -0.380200 0.114800 0.917800
vn 0.380200 0.114800 0.917800
vn 0.917800 0.114800 0.380200
vn 0.917800 0.114800 -0.380200
vn 0.380200 0.114800 -0.917800
vn -0.788100 0.606700 -0.104300
vn -0.833600 0.542600 -0.104000
vn -0.880200 0.463600 -0.101700
vn -0.918200 0.388200 -0.078300
vn -0.946500 0.322500 0.008200
vn -0.104300 0.606700 -0.788100
vn -0.069700 0.598400 -0.798100
vn -0.101700 0.463600 -0.880200
vn -0.078300 0.388200 -0.918200
vn 0.008200 0.322500 -0.946500
vn -0.788100 0.606700 0.104300
vn -0.833600 0.542600 0.104000
vn -0.871400 0.482300 0.089300
vn -0.908400 0.414100 0.057100
vn -0.946500 0.322500 -0.008200
vn -0.104300 0.606700 0.788100
vn -0.069700 0.598400 0.798100
vn -0.100300 0.465800 0.879200
vn -0.076500 0.390400 0.917500
vn 0.008200 0.322500 0.946500
vn 0.104300 0.606700 0.788100
vn 0.069700 0.598400 0.798100
vn 0.100300 0.465800 0.879200
vn 0.076500 0.390400 0.917500
vn -0.008200 0.322500 0.946500
vn 0.788100 0.606700 0.104300
vn 0.833600 0.542600 0.104000
vn 0.871400 0.482300 0.089300
vn 0.908400 0.414100 0.057100
vn 0.946500 0.322500 -0.008200
vn 0.788100 0.606700 -0.104300
vn 0.833600 0.542600 -0.104000
vn 0.880200 0.463600 -0.101700
vn 0.918200 0.388200 -0.078300
vn 0.946500 0.322500 0.008200
vn 0.104300 0.606700 -0.788100
vn 0.069700 0.598400 -0.798100
vn 0.101700 0.463600 -0.880200
vn 0.078300 0.388200 -0.918200
vn -0.008200 0.322500 -0.946500
vn 0.527400 -0.794100 -0.302200
vn -0.302200 -0.794100 0.527400
vn 0.527400 -0.794100 0.302200
vn -0.302200 -0.794100 -0.527400
vn 0.302200 -0.794100 -0.527400
vn -0.527400 -0.794100 0.302200
vn -0.527400 -0.794100 -0.302200
vn 0.302200 -0.794100 0.527400
vn 0.205200 -0.887000 0.413800
vn -0.413800 -0.887000 -0.205200
vn -0.413800 -0.887000 0.205200
vn 0.205200 -0.887000 -0.413800
vn -0.205200 -0.887000 -0.413800
vn 0.413800 -0.887000 0.205200
vn -0.205200 -0.887000 0.413800
vn 0.413800 -0.887000 -0.205200
vn 0.150800 -0.922600 0.355200
vn -0.311700 -0.938800 -0.146800
vn -0.310800 -0.936100 0.164600
vn 0.142600 -0.923700 -0.355600
vn -0.142600 -0.923700 -0.355600
vn 0.310800 -0.936100 0.164600
vn -0.150800 -0.922600 0.355200
vn 0.311700 -0.938800 -0.146800
vn 0.121900 -0.952500 0.278900
vn -0.256400 -0.959200 -0.119300
vn -0.256100 -0.958100 0.128300
vn 0.117800 -0.953000 -0.279100
vn -0.117800 -0.953000 -0.279100
vn 0.256100 -0.958100 0.128300
vn -0.121900 -0.952500 0.278900
vn 0.256400 -0.959200 -0.119300
vn 0.115500 -0.978200 0.172400
vn -0.352900 -0.934700 -0.042800
vn -0.352900 -0.934700 0.042800
vn 0.115500 -0.978200 -0.172400
vn -0.115500 -0.978200 -0.172400
vn 0.352900 -0.934700 0.042800
vn -0.115500 -0.978200 0.172400
vn 0.352900 -0.934700 -0.042800
vn 0.129700 -0.940800 0.313200
vn 0.313200 -0.940800 0.129700
vn 0.313200 -0.940800 -0.129700
vn -0.044000 -0.956600 -0.287900
vn -0.129700 -0.940800 -0.313200
vn -0.287900 -0.956600 0.044000
vn -0.313200 -0.940800 0.129700
vn 0.044000 -0.956600 0.287900
vn 0.116000 0.362200 -0.924800
vn 0.924800 0.362200 -0.116000
vn 0.924800 0.362200 0.116000
vn 0.116000 0.362200 0.924800
vn -0.116000 0.362200 0.924800
vn -0.924800 0.362200 0.116000
vn -0.116000 0.362200 -0.924800
vn -0.924800 0.362200 -0.116000
vn -0.721900 0.672900 -0.161700
vn -0.781700 0.603900 -0.155700
vn -0.804500 0.557100 -0.206000
vn -0.838300 0.495800 -0.226700
vn -0.892800 0.420700 -0.161100
vn -0.161700 0.672900 -0.721900
vn -0.164900 0.683200 -0.711300
vn -0.179900 0.534600 -0.825800
vn -0.180000 0.463400 -0.867700
vn -0.161100 0.420700 -0.892800
vn -0.721900 0.672900 0.161700
vn -0.781700 0.603900 0.155700
vn -0.808900 0.560200 0.178300
vn -0.846800 0.500800 0.179200
vn -0.892800 0.420700 0.161100
vn -0.161700 0.672900 0.721900
vn -0.164900 0.683200 0.711300
vn -0.173800 0.535100 0.826700
vn -0.170300 0.464200 0.869200
vn -0.161100 0.420700 0.892800
vn 0.161700 0.672900 0.721900
vn 0.164900 0.683200 0.711300
vn 0.173800 0.535100 0.826700
vn 0.170300 0.464200 0.869200
vn 0.161100 0.420700 0.892800
vn 0.721900 0.672900 0.161700
vn 0.781700 0.603900 0.155700
vn 0.808900 0.560200 0.178300
vn 0.846800 0.500800 0.179200
vn 0.892800 0.420700 0.161100
vn 0.721900 0.672900 -0.161700
vn 0.781700 0.603900 -0.155700
vn 0.804500 0.557100 -0.206000
vn 0.838300 0.495800 -0.226700
vn 0.892800 0.420700 -0.161100
vn 0.161700 0.672900 -0.721900
vn 0.164900 0.683200 -0.711300
vn 0.179900 0.534600 -0.825800
vn 0.180000 0.463400 -0.867700
vn 0.161100 0.420700 -0.892800
vn 0.789200 -0.534400 -0.302700
vn -0.302700 -0.534400 0.789200
vn 0.789200 -0.534400 0.302700
vn -0.302700 -0.534400 -0.789200
vn 0.302700 -0.534400 -0.789200
vn -0.789200 -0.534400 0.302700
vn -0.789200 -0.534400 -0.302700
vn 0.302700 -0.534400 0.789200
vn 0.225000 -0.703100 0.674600
vn -0.674600 -0.703100 -0.225000
vn -0.674600 -0.703100 0.225000
vn 0.225000 -0.703100 -0.674600
vn -0.225000 -0.703100 -0.674600
vn 0.674600 -0.703100 0.225000
vn -0.225000 -0.703100 0.674600
vn 0.674600 -0.703100 -0.225000
vn 0.167300 -0.793000 0.585800
vn -0.585800 -0.793000 -0.167300
vn -0.541200 -0.817700 0.195900
vn 0.158800 -0.785200 -0.598600
vn -0.158800 -0.785200 -0.598600
vn 0.541200 -0.817700 0.195900
vn -0.167300 -0.793000 0.585800
vn 0.585800 -0.793000 -0.167300
vn 0.143900 -0.860200 0.489300
vn -0.489300 -0.860200 -0.143900
vn -0.463600 -0.871900 0.157800
vn 0.139700 -0.856500 -0.496900
vn -0.139700 -0.856500 -0.496900
vn 0.463600 -0.871900 0.157800
vn -0.143900 -0.860200 0.489300
vn 0.489300 -0.860200 -0.143900
vn 0.159000 -0.925200 0.344600
vn -0.220400 -0.951800 -0.213300
vn -0.220400 -0.951800 0.213300
vn 0.159000 -0.925200 -0.344600
vn -0.159000 -0.925200 -0.344600
vn 0.220400 -0.951800 0.213300
vn -0.159000 -0.925200 0.344600
vn 0.220400 -0.951800 -0.213300
vn -0.044000 -0.956600 0.287900
vn 0.287900 -0.956600 -0.044000
vn 0.287900 -0.956600 0.044000
vn 0.129700 -0.940800 -0.313200
vn 0.044000 -0.956600 -0.287900
vn -0.313200 -0.940800 -0.129700
vn -0.287900 -0.956600 -0.044000
vn -0.129700 -0.940800 0.313200
s off
f 2/1/1 4/1/1 18/1/1
f 4/1/2 6/1/2 19/1/2
f 6/1/3 8/1/3 20/1/3
f 8/1/4 10/1/4 21/1/4
f 10/1/5 12/1/5 22/1/5
f 12/1/6 14/1/6 23/1/6
f 14/2/7 10/2/7 2/2/7
f 16/1/8 2/1/8 17/1/8
f 14/1/9 16/1/9 24/1/9
f 7/1/10 11/1/10 15/1/10
f 23/1/11 24/1/11 15/1/11
f 24/1/12 17/1/12 1/1/12
f 22/1/13 23/1/13 13/1/13
f 21/1/14 22/1/14 11/1/14
f 20/1/15 21/1/15 9/1/15
f 5/1/16 19/1/16 20/1/16
f 18/1/17 19/1/17 5/1/17
f 17/1/18 18/1/18 3/1/18
f 60/2/19 65/2/19 112/2/19
f 59/2/20 64/2/20 105/2/20
f 58/2/21 63/2/21 97/2/21
f 57/2/22 62/2/22 89/2/22
f 56/2/23 61/2/23 81/2/23
f 112/2/24 65/2/24 26/2/24
f 105/2/25 64/2/25 27/2/25
f 97/2/26 63/2/26 28/2/26
f 89/2/27 62/2/27 29/2/27
f 81/2/28 61/2/28 30/2/28
f 110/2/29 55/2/29 60/2/29
f 103/2/30 54/2/30 59/2/30
f 95/2/31 53/2/31 58/2/31
f 87/2/32 52/2/32 57/2/32
f 79/2/33 51/2/33 56/2/33
f 50/2/34 55/2/34 110/2/34
f 49/2/35 54/2/35 103/2/35
f 48/2/36 53/2/36 95/2/36
f 47/2/37 52/2/37 87/2/37
f 46/2/38 51/2/38 79/2/38
f 108/2/39 45/2/39 50/2/39
f 101/2/40 44/2/40 49/2/40
f 93/2/41 43/2/41 48/2/41
f 85/2/42 42/2/42 47/2/42
f 77/2/43 41/2/43 46/2/43
f 40/2/44 45/2/44 108/2/44
f 39/2/45 44/2/45 101/2/45
f 38/2/46 43/2/46 93/2/46
f 37/2/47 42/2/47 85/2/47
f 36/2/48 41/2/48 77/2/48
f 106/2/49 35/2/49 40/2/49
f 99/2/50 34/2/50 39/2/50
f 91/2/51 33/2/51 38/2/51
f 83/2/52 32/2/52 37/2/52
f 75/2/53 31/2/53 36/2/53
f 26/2/54 35/2/54 106/2/54
f 27/2/55 34/2/55 99/2/55
f 28/2/56 33/2/56 91/2/56
f 29/2/57 32/2/57 83/2/57
f 30/2/58 31/2/58 75/2/58
f 56/2/59 72/2/59 73/2/59
f 73/2/60 66/2/60 30/2/60
f 71/2/61 72/2/61 56/2/61
f 46/2/62 70/2/62 71/2/62
f 69/2/63 70/2/63 46/2/63
f 36/2/64 68/2/64 69/2/64
f 67/2/65 68/2/65 36/2/65
f 30/2/66 66/2/66 67/2/66
f 29/2/67 74/2/67 75/2/67
f 75/2/68 76/2/68 37/2/68
f 37/2/69 76/2/69 77/2/69
f 77/2/70 78/2/70 47/2/70
f 47/2/71 78/2/71 79/2/71
f 79/2/72 80/2/72 57/2/72
f 81/2/73 74/2/73 29/2/73
f 57/2/74 80/2/74 81/2/74
f 28/2/75 82/2/75 83/2/75
f 83/2/76 84/2/76 38/2/76
f 38/2/77 84/2/77 85/2/77
f 85/2/78 86/2/78 48/2/78
f 48/2/79 86/2/79 87/2/79
f 87/2/80 88/2/80 58/2/80
f 89/2/81 82/2/81 28/2/81
f 58/2/82 88/2/82 89/2/82
f 27/2/83 90/2/83 91/2/83
f 91/2/84 92/2/84 39/2/84
f 39/2/85 92/2/85 93/2/85
f 93/2/86 94/2/86 49/2/86
f 49/2/87 94/2/87 95/2/87
f 95/2/88 96/2/88 59/2/88
f 97/2/89 90/2/89 27/2/89
f 59/2/90 96/2/90 97/2/90
f 26/2/91 98/2/91 99/2/91
f 35/2/92 99/2/92 100/2/92
f 100/2/93 101/2/93 45/2/93
f 101/2/94 102/2/94 50/2/94
f 50/2/95 102/2/95 103/2/95
f 55/2/96 103/2/96 104/2/96
f 105/2/97 98/2/97 26/2/97
f 104/2/98 105/2/98 65/2/98
f 113/2/99 2/2/99 16/2/99
f 16/2/100 14/2/100 111/2/100
f 111/2/101 14/2/101 12/2/101
f 109/2/102 110/2/102 12/2/102
f 109/2/103 10/2/103 8/2/103
f 107/2/104 108/2/104 8/2/104
f 107/2/105 6/2/105 4/2/105
f 113/2/106 106/2/106 4/2/106
f 66/2/107 25/2/107 67/2/107
f 67/2/108 25/2/108 68/2/108
f 68/2/109 25/2/109 69/2/109
f 69/2/110 25/2/110 70/2/110
f 70/2/111 25/2/111 71/2/111
f 71/2/112 25/2/112 72/2/112
f 73/2/113 25/2/113 66/2/113
f 72/2/114 25/2/114 73/2/114
f 17/1/1 2/1/1 18/1/1
f 18/1/2 4/1/2 19/1/2
f 19/1/3 6/1/3 20/1/3
f 20/1/4 8/1/4 21/1/4
f 21/1/5 10/1/5 22/1/5
f 22/1/6 12/1/6 23/1/6
f 6/2/7 4/2/7 2/2/7
f 2/2/7 16/2/7 14/2/7
f 14/2/7 12/2/7 10/2/7
f 10/2/7 8/2/7 6/2/7
f 6/2/7 2/2/7 10/2/7
f 24/1/8 16/1/8 17/1/8
f 23/1/9 14/1/9 24/1/9
f 15/1/10 1/1/10 3/1/10
f 3/1/10 5/1/10 7/1/10
f 7/1/10 9/1/10 11/1/10
f 11/1/10 13/1/10 15/1/10
f 15/1/10 3/1/10 7/1/10
f 13/1/11 23/1/11 15/1/11
f 15/1/12 24/1/12 1/1/12
f 11/1/13 22/1/13 13/1/13
f 9/1/14 21/1/14 11/1/14
f 7/1/15 20/1/15 9/1/15
f 7/1/16 5/1/16 20/1/16
f 3/1/17 18/1/17 5/1/17
f 1/1/18 17/1/18 3/1/18
f 111/2/115 60/2/115 112/2/115
f 104/2/116 59/2/116 105/2/116
f 96/2/117 58/2/117 97/2/117
f 88/2/118 57/2/118 89/2/118
f 80/2/119 56/2/119 81/2/119
f 113/2/120 112/2/120 26/2/120
f 98/2/121 105/2/121 27/2/121
f 90/2/122 97/2/122 28/2/122
f 82/2/123 89/2/123 29/2/123
f 74/2/124 81/2/124 30/2/124
f 111/2/125 110/2/125 60/2/125
f 104/2/126 103/2/126 59/2/126
f 96/2/127 95/2/127 58/2/127
f 88/2/128 87/2/128 57/2/128
f 80/2/129 79/2/129 56/2/129
f 109/2/130 50/2/130 110/2/130
f 102/2/131 49/2/131 103/2/131
f 94/2/132 48/2/132 95/2/132
f 86/2/133 47/2/133 87/2/133
f 78/2/134 46/2/134 79/2/134
f 109/2/135 108/2/135 50/2/135
f 102/2/136 101/2/136 49/2/136
f 94/2/137 93/2/137 48/2/137
f 86/2/138 85/2/138 47/2/138
f 78/2/139 77/2/139 46/2/139
f 107/2/140 40/2/140 108/2/140
f 100/2/141 39/2/141 101/2/141
f 92/2/142 38/2/142 93/2/142
f 84/2/143 37/2/143 85/2/143
f 76/2/144 36/2/144 77/2/144
f 107/2/145 106/2/145 40/2/145
f 100/2/146 99/2/146 39/2/146
f 92/2/147 91/2/147 38/2/147
f 84/2/148 83/2/148 37/2/148
f 76/2/149 75/2/149 36/2/149
f 113/2/150 26/2/150 106/2/150
f 98/2/151 27/2/151 99/2/151
f 90/2/152 28/2/152 91/2/152
f 82/2/153 29/2/153 83/2/153
f 74/2/154 30/2/154 75/2/154
f 61/2/155 56/2/155 73/2/155
f 61/2/156 73/2/156 30/2/156
f 51/2/157 71/2/157 56/2/157
f 51/2/158 46/2/158 71/2/158
f 41/2/159 69/2/159 46/2/159
f 41/2/160 36/2/160 69/2/160
f 31/2/161 67/2/161 36/2/161
f 31/2/162 30/2/162 67/2/162
f 32/2/163 29/2/163 75/2/163
f 32/2/164 75/2/164 37/2/164
f 42/2/165 37/2/165 77/2/165
f 42/2/166 77/2/166 47/2/166
f 52/2/167 47/2/167 79/2/167
f 52/2/168 79/2/168 57/2/168
f 62/2/169 81/2/169 29/2/169
f 62/2/170 57/2/170 81/2/170
f 33/2/171 28/2/171 83/2/171
f 33/2/172 83/2/172 38/2/172
f 43/2/173 38/2/173 85/2/173
f 43/2/174 85/2/174 48/2/174
f 53/2/175 48/2/175 87/2/175
f 53/2/176 87/2/176 58/2/176
f 63/2/177 89/2/177 28/2/177
f 63/2/178 58/2/178 89/2/178
f 34/2/179 27/2/179 91/2/179
f 34/2/180 91/2/180 39/2/180
f 44/2/181 39/2/181 93/2/181
f 44/2/182 93/2/182 49/2/182
f 54/2/183 49/2/183 95/2/183
f 54/2/184 95/2/184 59/2/184
f 64/2/185 97/2/185 27/2/185
f 64/2/186 59/2/186 97/2/186
f 35/2/187 26/2/187 99/2/187
f 40/2/188 35/2/188 100/2/188
f 40/2/189 100/2/189 45/2/189
f 45/2/190 101/2/190 50/2/190
f 55/2/191 50/2/191 103/2/191
f 60/2/192 55/2/192 104/2/192
f 65/2/193 105/2/193 26/2/193
f 60/2/194 104/2/194 65/2/194
f 112/2/195 113/2/195 16/2/195
f 112/2/196 16/2/196 111/2/196
f 110/2/197 111/2/197 12/2/197
f 10/2/198 109/2/198 12/2/198
f 108/2/199 109/2/199 8/2/199
f 6/2/200 107/2/200 8/2/200
f 106/2/201 107/2/201 4/2/201
f 2/2/202 113/2/202 4/2/202
