# Blender v2.75 (sub 0) OBJ File: 'table.blend'
# www.blender.org
mtllib table.mtl
o Plane.004_Plane.002
v 0.800000 -0.000000 0.168233
v 0.000000 0.000000 -0.000000
v 0.800000 -0.000000 -0.000000
vn 0.000000 1.000000 -0.000000
usemtl None
s off
f 1/1/1 3/1/1 2/1/1
o table.obj_Plane
v 0.681041 0.800000 2.081041
v 0.800000 0.000000 2.200000
v 0.800000 0.800000 2.200000
v -0.681041 0.800000 2.181041
v -0.800000 0.000000 2.300000
v -0.800000 0.800000 2.300000
v 0.681041 0.800000 -2.181041
v 0.800000 0.000000 -2.300000
v 0.800000 0.800000 -2.300000
v -0.681041 0.800000 -2.181041
v -0.800000 0.000000 -2.300000
v -0.800000 0.800000 -2.300000
v -1.000000 0.800000 2.500000
v 1.000000 0.800000 2.500000
v -1.000000 0.800000 -2.500000
v 1.000000 0.800000 -2.500000
vn 0.707100 -0.000000 -0.707100
vn 0.707100 -0.000000 0.707100
vn -0.707100 0.000000 -0.707100
vn -0.707100 0.000000 0.707100
vn 0.000000 1.000000 0.000000
usemtl None
vt 0.0 0.0
s off
f 4/1/2 6/1/2 5/1/2
f 7/1/3 9/1/3 8/1/3
f 10/1/4 12/1/4 11/1/4
f 13/1/5 15/1/5 14/1/5
f 17/1/6 19/1/6 18/1/6
f 16/1/6 17/1/6 18/1/6
